<svg xmlns="http://www.w3.org/2000/svg" viewBox="0 0 441.63 147.78">
    <defs>
        <clipPath id="a">
            <circle cx="79" cy="114.74" r="47.59" fill="none"/>
        </clipPath>
        <clipPath id="b" transform="translate(-18.89 -14.55)">
            <path d="M23.89 27.07v87.67a7.54 7.54 0 0 0 7.52 7.51h95.18a7.54 7.54 0 0 0 7.52-7.51V27.07zm67.63 20h-25a5 5 0 0 1 0-10h25a5 5 0 1 1 0 10z" fill="none"/>
        </clipPath>
        <clipPath id="c" transform="translate(-18.89 -14.55)">
            <circle cx="79" cy="114.74" r="47.59" fill="none" clip-path="url(#a)"/>
        </clipPath>
        <radialGradient id="d" cx="91.33" cy="48.35" r="570.08" gradientTransform="matrix(.25 0 0 -.25 .75 38.75)" gradientUnits="userSpaceOnUse">
            <stop offset="0" stop-color="#fff" stop-opacity=".1"/>
            <stop offset="1" stop-color="#fff" stop-opacity="0"/>
        </radialGradient>
    </defs>
    <g clip-path="url(#b)">
        <path d="M5 12.52h110.22v95.18H5z" fill="#eee"/>
    </g>
    <g clip-path="url(#b)">
        <path d="M72.63 22.54h-25a5 5 0 0 0 0 10h25a5 5 0 1 0 0-10z" fill="#fff"/>
    </g>
    <g clip-path="url(#b)">
        <g clip-path="url(#c)">
            <path d="M20.11 52.6V111h21.26l18.74-32.45h47.59V52.6zm0 0V111h21.26l18.74-32.45h47.59V52.6z" fill="#db4437"/>
            <path d="M12.52 147.78h45.3l21-21v-15.77H41.37L12.52 61.52zm0 0h45.3l21-21v-15.77H41.37L12.52 61.52z" fill="#0f9d58"/>
            <path d="M60.11 78.55L78.85 111l-21 36.78h49.88V78.55zm0 0L78.85 111l-21 36.78h49.88V78.55z" fill="#ffcd40"/>
            <circle cx="60.11" cy="100.19" r="21.64" fill="#f1f1f1"/>
            <circle cx="60.11" cy="100.19" r="17.31" fill="#4285f4"/>
        </g>
        <g clip-path="url(#b)">
            <path d="M5 12.52h110.22v47.59H5z" fill="#212121" fill-opacity=".05"/>
        </g>
        <path d="M5 59.45h110.22v.62H5z" fill="#212121" fill-opacity=".02"/>
        <path d="M5 60.11h110.22v.63H5z" fill="#fff" fill-opacity=".05"/>
        <path d="M72.63 32.56h-25a5 5 0 0 1-5-4.7 1.72 1.72 0 0 0 0 .32 5 5 0 0 0 5 5h25a5 5 0 0 0 5-5 1.72 1.72 0 0 0 0-.32 5 5 0 0 1-5 4.7zM5 12.56v.63h110.22v-.63z" fill="#212121" fill-opacity=".02"/>
        <path d="M47.59 22.54h25a5 5 0 0 1 5 4.7v-.32a5 5 0 0 0-5-5h-25a5 5 0 0 0-5 5 1.72 1.72 0 0 0 0 .32 5 5 0 0 1 5-4.7zm60.11 84.54H12.52A7.54 7.54 0 0 1 5 99.56v.63a7.54 7.54 0 0 0 7.52 7.51h95.18a7.54 7.54 0 0 0 7.52-7.51v-.63a7.54 7.54 0 0 1-7.52 7.52z" fill="#231f20" fill-opacity=".1"/>
        <path d="M23.89 27.07v87.67a7.54 7.54 0 0 0 7.52 7.51h95.18a7.54 7.54 0 0 0 7.52-7.51V27.07zm67.63 20h-25a5 5 0 0 1 0-10h25a5 5 0 1 1 0 10z" transform="translate(-18.89 -14.55)" fill="url(#d)"/>
        <path d="M0 0h120.22v120.23H0z" fill="none"/>
    </g>
    <path d="M155.24 91.11a14 14 0 0 1-9.8-23.72 13.32 13.32 0 0 1 9.8-4 12.26 12.26 0 0 1 9.73 4.33l-2.36 2.3a8.93 8.93 0 0 0-7.37-3.37 10 10 0 0 0-7.3 2.92 11.33 11.33 0 0 0 0 15.32 10 10 0 0 0 7.3 2.92 10.45 10.45 0 0 0 8.14-3.84l2.37 2.37a12.9 12.9 0 0 1-4.55 3.45 14 14 0 0 1-5.96 1.32zM172.19 64.03v8.36l-.15 2.51h.15a6.06 6.06 0 0 1 2.33-2.2 6.78 6.78 0 0 1 3.4-.9 6.42 6.42 0 0 1 5.19 2.07 8.25 8.25 0 0 1 1.73 5.58v11.1h-3.4V79.94q0-5-4.48-5a4.21 4.21 0 0 0-3.44 1.69 6.08 6.08 0 0 0-1.33 3.9v10h-3.41v-26.5zM192.24 90.52h-3.4V72.39h3.27v3h.15a4.66 4.66 0 0 1 2.13-2.44 6.12 6.12 0 0 1 3.13-1 6.4 6.4 0 0 1 2.55.45l-1.3 3.18a5.14 5.14 0 0 0-1.81-.26 4.46 4.46 0 0 0-3.27 1.46 5.26 5.26 0 0 0-1.43 3.83zM202.75 74.55a9.52 9.52 0 0 1 13.39 0 10.37 10.37 0 0 1 0 13.8 9.5 9.5 0 0 1-13.39 0 10.37 10.37 0 0 1 0-13.8zm2.53 11.66a5.74 5.74 0 0 0 8.33 0 7.3 7.3 0 0 0 0-9.51 5.72 5.72 0 0 0-8.33 0 7.34 7.34 0 0 0 0 9.51zM221.51 90.52V72.39h3.26v2.51h.14a6.41 6.41 0 0 1 2.39-2.2 6.51 6.51 0 0 1 3.2-.9q4.22 0 5.73 3.47a7.11 7.11 0 0 1 6.33-3.47 5.81 5.81 0 0 1 4.85 2.05 8.77 8.77 0 0 1 1.63 5.6v11.1h-3.41V79.94a5.92 5.92 0 0 0-1-3.89 3.8 3.8 0 0 0-3-1.15 4 4 0 0 0-3.31 1.71 6.15 6.15 0 0 0-1.34 3.84v10h-3.41V79.94a5.92 5.92 0 0 0-1-3.89 3.8 3.8 0 0 0-3-1.15 4 4 0 0 0-3.31 1.71 6.16 6.16 0 0 0-1.35 3.84v10zM261.25 91.11a8.72 8.72 0 0 1-6.68-2.74 9.67 9.67 0 0 1-2.57-6.92 10 10 0 0 1 2.49-6.8 8.13 8.13 0 0 1 6.39-2.85 8.34 8.34 0 0 1 6.45 2.65 10 10 0 0 1 2.43 7v.63H255.4a6.16 6.16 0 0 0 1.83 4.33 5.56 5.56 0 0 0 3.94 1.59 4.88 4.88 0 0 0 5-3.11l3 1.26a8.08 8.08 0 0 1-2.92 3.54 8.49 8.49 0 0 1-5 1.42zm4.86-11.84a4.83 4.83 0 0 0-1.42-3 5.1 5.1 0 0 0-3.91-1.41 4.86 4.86 0 0 0-3.27 1.19 6.06 6.06 0 0 0-1.91 3.18zM310.98 64.03l-7.07 26.49h-3.48l-5.7-17.47h-.15l-5.69 17.47h-3.48l-7.37-26.49h3.56l5.58 20.83h.15l5.78-17.28h3.18l5.73 17.28h.09l5.29-20.83zM319.82 91.11a8.72 8.72 0 0 1-6.68-2.74 9.67 9.67 0 0 1-2.57-6.92 9.94 9.94 0 0 1 2.5-6.8 8.09 8.09 0 0 1 6.38-2.85 8.34 8.34 0 0 1 6.45 2.65 10 10 0 0 1 2.43 7v.63h-14.36a6.16 6.16 0 0 0 1.83 4.33 5.58 5.58 0 0 0 3.94 1.59 4.87 4.87 0 0 0 5-3.11l3 1.26a8.17 8.17 0 0 1-2.93 3.54 8.47 8.47 0 0 1-4.99 1.42zm4.88-11.84a4.83 4.83 0 0 0-1.42-3 5.1 5.1 0 0 0-3.91-1.41 4.88 4.88 0 0 0-3.26 1.23 6.06 6.06 0 0 0-1.91 3.18zM341.02 91.11a7.75 7.75 0 0 1-3.72-.89 6.22 6.22 0 0 1-2.46-2.22h-.15v2.52h-3.25V64.03h3.4v8.36l-.15 2.51h.15a6.37 6.37 0 0 1 2.46-2.22 7.74 7.74 0 0 1 3.72-.88 8 8 0 0 1 6.09 2.77 10.57 10.57 0 0 1 0 13.77 8 8 0 0 1-6.09 2.77zm-.56-3.11a5.42 5.42 0 0 0 4.07-1.79 7.47 7.47 0 0 0 0-9.51 5.53 5.53 0 0 0-8.15 0 7.59 7.59 0 0 0 0 9.55 5.42 5.42 0 0 0 4.08 1.75zM367.84 91.11a9.88 9.88 0 0 1-5.64-1.89 8.72 8.72 0 0 1-3.61-5.29l3.11-1.26a7.1 7.1 0 0 0 2.28 3.69 5.69 5.69 0 0 0 3.86 1.49 6.19 6.19 0 0 0 3.8-1.16 3.75 3.75 0 0 0 1.57-3.16 4.1 4.1 0 0 0-1.57-3.43 16.55 16.55 0 0 0-5-2.24 13.28 13.28 0 0 1-5.33-2.86 6 6 0 0 1-1.81-4.5 6.57 6.57 0 0 1 2.26-5 8.28 8.28 0 0 1 5.9-2.05 8.51 8.51 0 0 1 5.45 1.67 7.77 7.77 0 0 1 2.74 3.68l-3.11 1.29a4.64 4.64 0 0 0-1.63-2.33 5.8 5.8 0 0 0-6.74 0 3.35 3.35 0 0 0-1.38 2.72 3.08 3.08 0 0 0 1.27 2.5 12.17 12.17 0 0 0 3.76 1.83 32.06 32.06 0 0 1 3.27 1.22 15.59 15.59 0 0 1 2.67 1.57 6.23 6.23 0 0 1 2 2.45 7.82 7.82 0 0 1 .69 3.38 7.3 7.3 0 0 1-.8 3.44 6.43 6.43 0 0 1-2.11 2.41 10.57 10.57 0 0 1-5.94 1.81zM387.16 90.81a5.26 5.26 0 0 1-5.85-5.8V75.5h-3.2v-3.11h3.18v-5.55h3.41v5.55h4.44v3.11h-4.44v9.25c0 2 .81 3 2.44 3a3.6 3.6 0 0 0 1.55-.3l1.19 2.92a6.93 6.93 0 0 1-2.72.44zM393.82 74.55a9.52 9.52 0 0 1 13.39 0 10.37 10.37 0 0 1 0 13.8 9.5 9.5 0 0 1-13.39 0 10.37 10.37 0 0 1 0-13.8zm2.53 11.66a5.74 5.74 0 0 0 8.33 0 7.3 7.3 0 0 0 0-9.51 5.72 5.72 0 0 0-8.33 0 7.34 7.34 0 0 0 0 9.51zM415.98 90.52h-3.4V72.39h3.25v3h.15a4.62 4.62 0 0 1 2.13-2.48 6.09 6.09 0 0 1 3.12-1 6.41 6.41 0 0 1 2.56.45l-1.3 3.18a5.18 5.18 0 0 0-1.81-.26 4.48 4.48 0 0 0-3.28 1.46 5.26 5.26 0 0 0-1.42 3.83zM433.11 91.11a8.74 8.74 0 0 1-6.68-2.74 9.71 9.71 0 0 1-2.57-6.92 9.94 9.94 0 0 1 2.5-6.8 8.09 8.09 0 0 1 6.38-2.85 8.37 8.37 0 0 1 6.46 2.65 10 10 0 0 1 2.42 7v.63h-14.35a6.08 6.08 0 0 0 1.84 4.37 5.54 5.54 0 0 0 3.94 1.59 4.86 4.86 0 0 0 4.95-3.11l3 1.26a8.15 8.15 0 0 1-2.92 3.54 8.52 8.52 0 0 1-4.97 1.38zm4.88-11.84a4.77 4.77 0 0 0-1.42-3 5.09 5.09 0 0 0-3.9-1.41 4.91 4.91 0 0 0-3.28 1.19 6 6 0 0 0-1.9 3.18zM143.45 49.39l7.56-20h2.91l7.56 20h-2.86l-1.93-5.43h-8.43l-2 5.43zm5.66-7.84h6.66l-3.27-9.05h-.11zM166.11 49.39l-5.54-13.72h2.8l4 10.64h.05l4.09-10.64h2.75l-5.6 13.72zM179.99 49.84a5.43 5.43 0 0 1-3.66-1.26 4.18 4.18 0 0 1-1.47-3.34 4.11 4.11 0 0 1 1.74-3.51 7 7 0 0 1 4.28-1.28 7.43 7.43 0 0 1 3.73.84v-.4a3.08 3.08 0 0 0-1-2.42 3.76 3.76 0 0 0-2.55-.91 4 4 0 0 0-2 .53 2.71 2.71 0 0 0-1.24 1.46l-2.36-1a5.4 5.4 0 0 1 1.88-2.28 6 6 0 0 1 3.7-1 6.3 6.3 0 0 1 4.36 1.54 5.49 5.49 0 0 1 1.71 4.29v8.29h-2.5v-1.94h-.12a5 5 0 0 1-4.5 2.39zm.42-2.39a4.14 4.14 0 0 0 2.89-1.19 3.69 3.69 0 0 0 1.31-2.81 5.07 5.07 0 0 0-3.28-.9 4.28 4.28 0 0 0-2.83.82 2.44 2.44 0 0 0-.95 1.9 1.85 1.85 0 0 0 .87 1.6 3.47 3.47 0 0 0 1.99.58zM192.78 32.22a1.82 1.82 0 1 1 .53-1.28 1.73 1.73 0 0 1-.53 1.28zm0 17.17h-2.57V35.67h2.57zM198.72 49.39h-2.61v-20h2.58zM206.05 49.84a5.42 5.42 0 0 1-3.65-1.26 4.18 4.18 0 0 1-1.47-3.34 4.11 4.11 0 0 1 1.74-3.51 7 7 0 0 1 4.28-1.28 7.37 7.37 0 0 1 3.72.84v-.4a3.07 3.07 0 0 0-1-2.42 3.76 3.76 0 0 0-2.55-.91 4 4 0 0 0-2 .53 2.77 2.77 0 0 0-1.25 1.46l-2.35-1a5.32 5.32 0 0 1 1.88-2.28 6 6 0 0 1 3.69-1 6.32 6.32 0 0 1 4.37 1.54 5.49 5.49 0 0 1 1.65 4.29v8.29h-2.47v-1.94h-.11a5.06 5.06 0 0 1-4.48 2.39zm.42-2.36a4.16 4.16 0 0 0 2.9-1.19 3.68 3.68 0 0 0 1.3-2.81 5 5 0 0 0-3.27-.9 4.27 4.27 0 0 0-2.83.82 2.41 2.41 0 0 0-1 1.9 1.85 1.85 0 0 0 .87 1.6 3.44 3.44 0 0 0 2.03.55zM223.3 49.84a5.81 5.81 0 0 1-2.81-.68 4.63 4.63 0 0 1-1.86-1.71h-.12v1.91h-2.46v-20h2.58v6.33l-.12 1.9h.12a4.78 4.78 0 0 1 1.86-1.68 5.81 5.81 0 0 1 2.81-.67 6 6 0 0 1 4.59 2.1 8 8 0 0 1 0 10.42 6 6 0 0 1-4.59 2.08zm-.42-2.39a4.1 4.1 0 0 0 3.08-1.35 5.67 5.67 0 0 0 0-7.2 4.19 4.19 0 0 0-6.17 0 5.73 5.73 0 0 0 0 7.22 4.08 4.08 0 0 0 3.09 1.33zM234.61 49.39h-2.57v-20h2.57zM243.83 49.84a6.6 6.6 0 0 1-5.06-2.08 7.31 7.31 0 0 1-1.94-5.23 7.53 7.53 0 0 1 1.89-5.15 6.13 6.13 0 0 1 4.83-2.16 6.3 6.3 0 0 1 4.88 2 7.55 7.55 0 0 1 1.84 5.32v.47H239.4a4.67 4.67 0 0 0 1.39 3.28 4.2 4.2 0 0 0 3 1.2 3.68 3.68 0 0 0 3.75-2.35l2.3 1a6.19 6.19 0 0 1-2.21 2.68 6.43 6.43 0 0 1-3.8 1.02zm3.69-9a3.57 3.57 0 0 0-1.08-2.24 3.83 3.83 0 0 0-2.95-1.07 3.69 3.69 0 0 0-2.48.9 4.57 4.57 0 0 0-1.44 2.41zM261.58 32.22a1.82 1.82 0 0 1-2.58-2.57 1.83 1.83 0 0 1 2.58 0 1.82 1.82 0 0 1 0 2.57zm0 17.17H259V35.67h2.58zM267.4 35.67v1.9h.11a4.53 4.53 0 0 1 1.77-1.66 5.08 5.08 0 0 1 2.57-.69 4.82 4.82 0 0 1 3.89 1.57 6.2 6.2 0 0 1 1.35 4.2v8.4h-2.58v-8q0-3.81-3.39-3.81a3.17 3.17 0 0 0-2.6 1.28 4.63 4.63 0 0 0-1 3v7.59h-2.57V35.67zM292.21 49.61a4 4 0 0 1-4.43-4.39v-7.2h-2.41v-2.35h2.41v-4.22h2.58v4.2h3.36V38h-3.36v7c0 1.49.62 2.24 1.85 2.24a2.72 2.72 0 0 0 1.17-.22l.9 2.21a5.26 5.26 0 0 1-2.07.38zM298.9 29.34v6.33l-.11 1.9h.11a4.5 4.5 0 0 1 1.76-1.66 5.09 5.09 0 0 1 2.58-.69 4.83 4.83 0 0 1 3.87 1.57 6.19 6.19 0 0 1 1.34 4.2v8.4h-2.57v-8q0-3.81-3.39-3.81a3.17 3.17 0 0 0-2.6 1.28 4.57 4.57 0 0 0-1 3v7.59h-2.58v-20zM317.71 49.84a6.59 6.59 0 0 1-5.05-2.08 7.32 7.32 0 0 1-1.95-5.23 7.53 7.53 0 0 1 1.89-5.15 6.13 6.13 0 0 1 4.83-2.16 6.31 6.31 0 0 1 4.89 2 7.54 7.54 0 0 1 1.79 5.31V43h-10.82a4.63 4.63 0 0 0 1.39 3.28 4.2 4.2 0 0 0 3 1.2 3.68 3.68 0 0 0 3.75-2.35l2.3 1a6.15 6.15 0 0 1-2.22 2.68 6.39 6.39 0 0 1-3.8 1.03zm3.7-9a3.68 3.68 0 0 0-1.08-2.24 3.85 3.85 0 0 0-3-1.07 3.69 3.69 0 0 0-2.48.9 4.57 4.57 0 0 0-1.44 2.41z" fill="#5f6368"/>
</svg>
