<svg xmlns="http://www.w3.org/2000/svg" viewBox="0 0 360.18 97.41">
    <path d="M69.37 41.7H39.09a1.41 1.41 0 0 0-1.4 1.4v14.8a1.42 1.42 0 0 0 1.4 1.42h11.82V77.7s-2.65.91-10 .91c-8.65 0-20.73-3.16-20.73-29.73s12.6-30.06 24.41-30.06c10.22 0 14.63 1.8 17.43 2.66a1.42 1.42 0 0 0 1.69-1.38l3.38-14.3a1.31 1.31 0 0 0-.54-1.1C65.41 3.89 58.47.01 40.93.01 20.72.01 0 8.6 0 49.93S23.73 97.4 43.72 97.4c16.56 0 26.61-7.07 26.61-7.07a1.22 1.22 0 0 0 .45-1.07V43.1a1.41 1.41 0 0 0-1.41-1.4zM225.35 4.95a1.4 1.4 0 0 0-1.4-1.42h-17a1.41 1.41 0 0 0-1.41 1.42v32.93h-26.6V4.95a1.41 1.41 0 0 0-1.41-1.42h-17a1.41 1.41 0 0 0-1.44 1.42v89.18a1.42 1.42 0 0 0 1.41 1.42h17a1.42 1.42 0 0 0 1.41-1.42V55.98h26.56v38.15a1.43 1.43 0 0 0 1.42 1.42h17.08a1.41 1.41 0 0 0 1.4-1.42zM101.53 16.7a11 11 0 1 0-11 11.1 11 11 0 0 0 11-11.1zM100.31 75.31V34.15a1.42 1.42 0 0 0-1.41-1.45h-17a1.61 1.61 0 0 0-1.47 1.58v59c0 1.73 1.08 2.25 2.47 2.25h15.31c1.68 0 2.09-.83 2.09-2.28zM290.09 32.86h-16.88a1.43 1.43 0 0 0-1.41 1.43v43.73a19.09 19.09 0 0 1-10.39 3.14c-6.1 0-7.72-2.77-7.72-8.74V34.29a1.42 1.42 0 0 0-1.4-1.43h-17.2a1.43 1.43 0 0 0-1.41 1.43v41c0 17.73 9.89 22.07 23.49 22.07 11.15 0 20.14-6.16 20.14-6.16a34 34 0 0 0 .63 3.63 1.47 1.47 0 0 0 1.24.77h10.92a1.43 1.43 0 0 0 1.41-1.43V34.29a1.42 1.42 0 0 0-1.42-1.43zM336.34 30.86a31.75 31.75 0 0 0-16.13 4.29V4.95a1.41 1.41 0 0 0-1.41-1.42h-17.09a1.41 1.41 0 0 0-1.41 1.42v89.18a1.42 1.42 0 0 0 1.41 1.42h11.86a1.42 1.42 0 0 0 1.24-.75 28.5 28.5 0 0 0 .72-4.12s7 6.63 20.21 6.63c15.53 0 24.44-7.88 24.44-35.37s-14.22-31.08-23.84-31.08zm-6.67 50.25a20.24 20.24 0 0 1-9.84-2.85V50.02a22.54 22.54 0 0 1 8.74-2.83c6.09-.55 12 1.29 12 15.82-.04 15.32-2.69 18.34-10.9 18.1zM149.29 32.7h-12.78V15.81c0-.64-.33-1-1.07-1H118c-.68 0-1 .3-1 .95v17.51s-8.73 2.11-9.32 2.28a1.42 1.42 0 0 0-1 1.36v11a1.41 1.41 0 0 0 1.41 1.42h8.93V75.7c0 19.59 13.74 21.52 23 21.52a38.91 38.91 0 0 0 10.07-1.68 1.33 1.33 0 0 0 .8-1.28V82.2a1.44 1.44 0 0 0-1.41-1.43c-.75 0-2.65.31-4.62.31-6.27 0-8.4-2.92-8.4-6.7V49.3h12.83a1.41 1.41 0 0 0 1.41-1.42V34.14a1.42 1.42 0 0 0-1.41-1.44z" fill="#0f0d0e"/>
</svg>
